PathFileType	4	(X/Y/Z)	T1_P2_NoVision_Movement_0_0-734.trc
DataRate	CameraRate	NumFrames	NumMarkers	Units	OrigDataRate	OrigDataStartFrame	OrigNumFrames
60	60	5	27	m	60	0	734
Frame#	Time	RHip			RKnee			RAnkle			RBigToe			RSmallToe			RHeel			LHip			LKnee			LAnkle			LBigToe			LSmallToe			LHeel			Neck			Head			Nose			RShoulder			RElbow			RWrist			RThumb			RIndex			RPinky			LShoulder			LElbow			LWrist			LThumb			LIndex			LPinky		
		X1	Y1	Z1	X2	Y2	Z2	X3	Y3	Z3	X4	Y4	Z4	X5	Y5	Z5	X6	Y6	Z6	X7	Y7	Z7	X8	Y8	Z8	X9	Y9	Z9	X10	Y10	Z10	X11	Y11	Z11	X12	Y12	Z12	X13	Y13	Z13	X14	Y14	Z14	X15	Y15	Z15	X16	Y16	Z16	X17	Y17	Z17	X18	Y18	Z18	X19	Y19	Z19	X20	Y20	Z20	X21	Y21	Z21	X22	Y22	Z22	X23	Y23	Z23	X24	Y24	Z24	X25	Y25	Z25	X26	Y26	Z26	X27	Y27	Z27
1	0.016666666666666666	460.0433006437831	3592.772446895981	532.1643756418354	876.9729544122392	3666.411827879576	562.6133805018039	1213.4132036778458	3650.9068593847514	575.0335314687471	1351.325804718496	3654.460810812948	647.338907740044	1300.411467138846	3612.620419664101	539.3488747163843	1282.4466183000895	3704.665677428853	632.7706255371406	488.4576961991576	3523.5828563656614	752.0102182315924	932.3950666490367	3618.1326806116235	812.2081676977908	1267.9679255076533	3662.4168962746576	799.6812867484123	1346.289368372329	3578.642710960264	735.4508325047557	1295.754093586586	3502.861647607306	746.8515776121575	1295.7899528634566	3626.2180325351383	739.3574482649927	-113.76855868567068	3539.415211126568	643.8936567885727	-372.0024523919161	3473.7151959104795	616.4591394508997	-214.79308429324539	3353.5210025548254	550.7395677463479	-38.90514574962375	3632.3441062671823	531.8531953755892	174.24302014506486	3743.3281010921637	467.6240313575928	230.18761028660674	3461.3259649677843	352.8011445610991	293.3303401373227	3384.40060850617	423.0380059548583	313.23071187103517	3371.2689937472423	428.3225560820995	334.6108770784118	3395.880996083738	411.0138956378644	-19.101151489266336	3498.1207995042378	794.9725329352925	234.96619070279098	3494.3708630291626	878.1323605144057	485.5999412113153	3442.4218814943865	861.4244719864181	604.9684049071082	3479.063968530471	866.6807671012916	604.8606371156144	3426.698406376855	851.9579239910522	597.6967942596855	3386.930792396997	847.3075201529467
2	0.03333333333333333	467.657776926252	3618.334682403999	540.6711484528569	889.221615707862	3706.723156804478	582.9577338407921	1237.79531503285	3696.7234606968773	612.0338423523883	1321.325389095088	3620.465816326933	615.1513279811746	1310.7671852245537	3650.126856502246	560.5324795140696	1272.2219008681682	3698.5307091767613	634.4709962200482	477.04307635506683	3501.9994623806974	732.635739517426	886.1960238634236	3545.0947493043604	748.5179895456935	1222.209478692651	3586.514667029868	740.678304092185	1325.0063877504815	3560.036475647572	709.5445252534136	1281.159504817415	3485.9624097511232	734.0833943709455	1266.5559611761064	3608.97018780477	731.8649399091173	-116.95784569698395	3551.6003026221374	654.8296485890429	-372.11407436546443	3481.80700927169	623.5764056634047	-219.41704753973897	3407.102913410058	587.2898417897221	-41.13822723295832	3624.13779384388	525.6254791429126	161.53204211291404	3698.113199229412	434.560711591442	237.1551195320494	3511.8999691846516	398.26930487849717	296.494014596808	3395.134036995734	444.0461021614847	306.46449935170403	3365.829828163103	424.7037531075247	324.4637654935438	3366.3927969237106	389.23285820847474	-18.110968886745624	3533.6036838471077	828.8570314184541	234.97488263926897	3470.0405354724903	856.0382993862914	484.1906518711174	3440.3606559488985	846.8606563492598	590.6882756689267	3428.8968890282003	817.0593109396815	600.2966677241233	3393.8828012210715	819.6703587005483	603.4463377147064	3404.7507709350994	864.8231508915043
3	0.05	466.0718251498802	3626.714790491824	547.6954483680481	898.8041449079296	3715.0555124958173	586.9674433108036	1200.7831707302537	3639.410517092527	568.0719476511925	1352.5195536669535	3677.1919176324313	656.6811770519272	1288.634151405027	3620.9705334537452	539.9743405169345	1287.9409554212398	3725.6970405385177	659.2250909509794	488.3971294500462	3523.5956380576863	751.883574939233	932.4458821629897	3618.307958466178	812.4334393832675	1271.3202064774277	3681.1496714599784	825.8303330878775	1347.3648447738674	3600.5643141908436	745.2108641073048	1283.1443136929884	3491.6504313897917	739.1096286477765	1299.9993290446687	3646.3704372231136	766.1886272369056	-114.0176156425738	3539.1072771395343	643.5489338082078	-371.83410006940176	3473.417716651175	616.2018285253172	-220.86473418614275	3372.4489175640515	557.801690577543	-39.08513256501651	3631.832264989524	531.4896246417289	174.28683697503305	3744.507468713285	468.19658145288196	243.45726178454657	3497.606933707182	385.2968815450969	289.640451963166	3356.365748260004	410.7639851790279	313.6453727980161	3371.494246502265	429.40515169476845	349.161827202324	3432.328238122402	444.9608673122243	-19.159177943112944	3498.1476252876237	794.9927916025304	235.0562188428885	3494.385126995693	878.0868526297849	492.2377595238507	3475.012062005416	880.4053246047033	605.024231449364	3479.5211920604024	866.9621904526982	614.4206036845046	3438.5780200792074	860.9951100463373	607.263799508754	3398.3369763150204	856.1640521023512
4	0.06666666666666667	462.5398155926376	3616.5834699052534	539.6916294702653	895.3802485267105	3707.25467634388	592.157589949246	1235.2753651753865	3702.172661530014	614.8398157632253	1321.0323261128992	3622.079231008875	610.3146870831184	1310.5179342425758	3649.649339819755	560.2535014016305	1272.4247880758983	3698.91334314268	634.7290695475466	476.8857271910851	3501.93372066027	732.6547062256901	886.1767824376329	3545.3417564561632	748.4894751394555	1216.9665975853165	3585.640948456697	739.7001799760819	1318.18858727017	3543.6143553754414	700.2334274641935	1266.5977010933188	3452.0032874364033	714.7610952419551	1266.9641912829043	3609.9874583533597	732.3194724799636	-116.92980406847502	3551.413957792714	654.6458600456677	-372.07314873524905	3481.8448616817104	623.5782073333393	-219.29829165074662	3407.2368754777776	587.3273577715056	-41.03988116225271	3624.3324328457875	525.621975988551	165.69297550877224	3699.5977136975644	435.22427806184936	247.03266058244898	3517.35078612113	400.72413952998477	299.17208430017877	3414.0879255973387	465.3171131952357	315.23893314536383	3394.104555616404	448.8974873366119	336.4328263364107	3359.0036647900224	396.37163628659175	-18.10365967428794	3533.1879351059333	828.4511942297102	226.43422816237936	3473.227969578221	857.8702722740724	484.11976529066516	3440.6188785057925	846.8692529901712	590.6677002646735	3428.9509861529355	816.9095318696033	605.5777871425121	3399.8531757858245	816.8508955375816	608.9716114862395	3409.3615414136093	866.9761439332475
5	0.08333333333333333	467.48367341332494	3620.9546730515476	541.0337454970353	891.7868889697673	3713.543321318866	595.4470595915875	1235.2725414668025	3704.0797659533423	613.98208035616	1320.7139427801046	3604.116358875203	610.9579930996069	1309.707677672045	3633.4911855604964	555.9717225005679	1272.2633379839992	3699.4762281992694	634.7122291251488	477.60448084433136	3504.0377410122483	733.0056734191259	886.0626734306912	3545.2244873729173	748.450550164389	1223.922313617051	3600.882300898569	753.3724800717006	1324.2702116345224	3547.902167973726	701.2384320714332	1287.3582022614603	3489.967875886314	735.2162745492489	1266.7692844606006	3609.706739769649	732.1911500301331	-116.95214389794522	3551.3908636892907	654.5192131961414	-372.0761081737718	3481.687629341257	623.4441345887772	-219.2903721098325	3407.152065046011	587.3405133840225	-41.0580174080786	3624.484261297895	525.6161154755262	163.0159439259557	3720.8039158618017	449.62496223029365	255.34333392394333	3502.784765493141	403.9070125567749	305.9036890212775	3425.132521671959	475.7521275037606	321.8018187113361	3409.222974999009	461.87941331825425	351.9603510059804	3380.690887870148	411.23476361523814	-18.03481467623411	3533.146827451192	828.3707839794824	226.45572643427283	3473.322511736451	857.9653621885792	484.18276464443494	3440.562963708174	846.882496470123	590.6577681974059	3428.5881205584747	816.8448573030154	605.552619646501	3399.3004866292763	816.5622709043885	608.9286192476976	3409.3856806452104	867.0660601118853
